<svg xmlns="http://www.w3.org/2000/svg" viewBox="0 0 57 57.38"><g id="Layer_2" data-name="Layer 2"><g id="Layer_1-2" data-name="Layer 1"><path d="M0,26.52c.27-4.83,2.17-8,6.06-9.92a.83.83,0,0,0,.58-1A9.83,9.83,0,0,1,16.38,5.11a10.4,10.4,0,0,1,2.28.29c.39.08.58,0,.8-.33a9.83,9.83,0,0,1,17.22,0,.57.57,0,0,0,.75.31A9.81,9.81,0,0,1,49.51,15.54a.51.51,0,0,0,.42.62,10.4,10.4,0,0,1,4.46,16.76,15.9,15.9,0,0,1-8.83,5.73,8.26,8.26,0,0,1-3.83,0,.84.84,0,0,0-.7.23q-5.7,7.5-11.34,15a1.49,1.49,0,0,0-.22.75c0,.61,0,1.22,0,1.83a.89.89,0,0,1-.93,1,.87.87,0,0,1-.84-1v-.07c.3-1.66-.47-2.89-1.45-4.15-3.41-4.41-6.73-8.88-10.08-13.32-.19-.25-.33-.52-.75-.38a8.28,8.28,0,0,1-6-.53A15.57,15.57,0,0,1,.91,30,18.19,18.19,0,0,1,0,26.52Zm37.17-6.39c-.08-.66-.11-1.29-.23-1.91a8.53,8.53,0,0,0-8.77-6.79,8.41,8.41,0,0,0-8,7.3,13.33,13.33,0,0,0,4.7,11.62c2.45,2.22,5.24,2.11,7.68-.14A14.84,14.84,0,0,0,37.17,20.13Zm.54,7.64a13.67,13.67,0,0,0,1,5.85,5.34,5.34,0,0,0,6.48,3.25A14.34,14.34,0,0,0,53,31.8a8.83,8.83,0,0,0,2.22-5.56A8.55,8.55,0,0,0,39.65,21,12.21,12.21,0,0,0,37.71,27.77Zm-18.36.15a14.87,14.87,0,0,0-.87-4.85,8.56,8.56,0,0,0-11.17-5A8.43,8.43,0,0,0,2.58,29.32a13.3,13.3,0,0,0,9.06,7.49c3.2.86,5.46-.39,6.78-3.44A13.14,13.14,0,0,0,19.35,27.92Zm16.29-15.4c1.37-3,.07-7.1-2.89-9.23a8.06,8.06,0,0,0-10.28.76,7.82,7.82,0,0,0-1.66,9.18,10.35,10.35,0,0,1,14.83-.71Zm-8,21.12c-2.85-.51-4.78-2.29-6.5-4.61-.28,3.37-1,6.4-3.74,8.57L27.66,51.16ZM29.5,51.11,39.68,37.63c-2.74-2.16-3.48-5.16-3.79-8.51-1.7,2.29-3.62,4-6.39,4.51ZM8.43,15.78a10.59,10.59,0,0,1,9.73,3.28,1.14,1.14,0,0,0,.12-.19c.39-1.22.79-2.44,1.15-3.67a1.09,1.09,0,0,0-.09-.73,9.38,9.38,0,0,1-1.13-4.83c0-.8.17-1.6.26-2.47a7.71,7.71,0,0,0-7.12,1.57A7.83,7.83,0,0,0,8.43,15.78Zm39.3-.12A8,8,0,0,0,44.48,8.5a7.71,7.71,0,0,0-6.81-1.33c0,.14-.05.19,0,.23a9.89,9.89,0,0,1-.49,6.37,1,1,0,0,0,.1.68c.33.71.77,1.39,1,2.12s.44,1.62.67,2.48A10.28,10.28,0,0,1,47.73,15.66Z"/></g></g></svg>